<svg xmlns="http://www.w3.org/2000/svg" width="201" height="40"><path d="M200.878 10V0l-20.4 17.486V12.5L165.878 0v10l11.673 9.994L165.878 30v10l20.4-17.486c4.142-3.96 5.394-4.623 14.6-12.514zM20.178 16.8l-6.55-1.25c-3.65-.7-5.25-1.55-5.25-3.55 0-2.8 3.15-4.25 7.1-4.25 4.15 0 7.85 1.6 8.65 5h7C30.328 6.25 24.478 2 15.478 2 7.178 2 .628 5.65.628 12.25c0 5.75 4.9 8.65 11.45 9.9l6.55 1.25c3.65.7 5.5 1.85 5.5 4.1 0 3.05-3.4 4.75-7.6 4.75-5.15 0-8.6-2.5-9.4-6.25h-7.25c1.05 7.5 6.95 12 16.65 12 8.65 0 15.35-3.5 15.35-10.75 0-6.4-5.15-9.2-11.7-10.45zM48.528 6.25V2.5h-7.25v2.75c0 3.25-1.5 4.75-4.75 4.75h-2.05v5.5h5.75V29c0 6 2.95 8.5 9.95 8.5h5.95V32h-5.3c-2.5 0-3.35-.75-3.35-3V15.5h8.65V10h-10.75zM111.228 32.5c-5.25 0-8.6-3.7-8.6-8.7 0-5 3.35-8.7 8.6-8.7 4.05 0 6.95 2.25 7.7 5h7.15c-1.3-6.5-6.95-10.5-14.85-10.5-9.45 0-16 5.7-16 14.2s6.55 14.2 16 14.2c7.9 0 14.1-4 15.1-10.75h-7.15c-.75 2.5-3.45 5.25-7.95 5.25zM75.228 9.6c-9.75 0-16 5.7-16 14.2s6.25 14.2 16 14.2 16-5.7 16-14.2-6.25-14.2-16-14.2zm0 22.9c-5.25 0-8.6-3.7-8.6-8.7 0-5 3.35-8.7 8.6-8.7s8.6 3.7 8.6 8.7c0 5-3.35 8.7-8.6 8.7zM145.028 22.9l15.05-12.9h-9.75l-12.3 10.8V2.5h-7.25v35h7.25v-8.6l4.347-3.726L152.928 37.5h9.2l-12.5-14.6z"/></svg>